<svg version="1.1" id="Layer_1" xmlns="http://www.w3.org/2000/svg" xmlns:xlink="http://www.w3.org/1999/xlink" x="0px" y="0px"
	 width="100%" viewBox="0 0 160 96" enable-background="new 0 0 160 96" xml:space="preserve">
<path fill="#000000" opacity="1.000000" stroke="none" 
	d="
M45.764618,76.559288 
	C31.056978,70.209099 25.640852,61.507439 26.731735,46.425972 
	C27.644876,33.801762 36.885883,22.700134 49.943306,19.562180 
	C57.128326,17.835482 64.488846,18.242310 71.516190,21.145157 
	C73.843765,22.106627 75.538269,23.527201 75.777771,26.166563 
	C75.967812,28.260872 76.980446,31.001638 74.673035,32.085430 
	C72.084160,33.301426 71.687630,30.169849 70.592865,28.739805 
	C63.327534,19.249403 47.093369,21.064444 40.709858,32.700203 
	C34.841721,43.396557 34.768311,54.802143 40.369907,65.731651 
	C43.622128,72.077194 49.717926,74.558105 56.635914,74.607491 
	C63.814945,74.658737 69.405197,71.443184 73.494919,65.536095 
	C74.937157,63.452957 74.398880,61.386360 73.647057,59.349606 
	C66.636101,40.356232 80.408241,18.672132 104.284119,18.817255 
	C109.966949,18.851795 115.597557,18.905666 121.016373,20.949774 
	C127.299530,23.319929 129.184296,27.935467 126.531349,34.689484 
	C124.819321,35.140972 123.994835,33.888546 123.496964,32.734825 
	C117.057907,17.813696 96.032288,20.766890 87.721367,31.066132 
	C75.618858,46.064072 84.079048,70.937225 102.695259,74.282120 
	C106.792755,75.018349 110.683853,74.191147 114.379036,72.620064 
	C119.307259,70.524704 119.111519,67.246391 118.600105,58.497055 
	C118.362610,54.433956 114.902634,54.422695 111.850960,54.225742 
	C110.390541,54.131489 108.753250,54.312309 108.181381,52.398838 
	C111.370094,50.123638 130.810486,49.829296 135.383743,51.998707 
	C135.560318,53.897301 134.195526,54.280560 132.844376,54.197517 
	C128.539719,53.932949 128.076813,56.524422 128.023926,59.935783 
	C127.811966,73.610405 123.954285,77.261246 109.856094,78.194466 
	C97.757408,78.995331 86.614517,77.163467 77.944572,67.696617 
	C77.247169,68.461761 76.691833,68.783051 76.631866,69.179314 
	C75.403145,77.298195 69.447685,78.260147 62.921661,78.162560 
	C57.300377,78.078506 51.567196,79.071709 45.764618,76.559288 
z"/>
</svg>